PathFileType	4	(X/Y/Z)	Patient4_TMGait_0pt6_02_right_08.trc.trc
DataRate	CameraRate	NumFrames	NumMarkers	Units	OrigDataRate	OrigDataStartFrame	OrigNumFrames
81.871345029240	81.871345029240	5	33	mm	81.871345029240	106	       141
Frame#	Time	Sacral			L.Shoulder			Chest			R.Shoulder			Neck			R.ASIS			L.ASIS			R.Thigh.Superior			R.Thigh.Lateral			R.Thigh.Inferior			R.Patella			L.Thigh.Superior			L.Thigh.Lateral			L.Thigh.Inferior			L.Patella			L.Shank.Superior			L.Shank.Lateral			L.Shank.Inferior			R.Shank.Superior			R.Shank.Lateral			R.Shank.Inferior			R.Heel			R.Midfoot.Superior			R.Midfoot.Lateral			R.Toe			L.Heel			L.Midfoot.Lateral			L.Midfoot.Superior			L.Toe			L.Elbow			L.Wrist			R.Elbow			R.Wrist			
		X1	Y1	Z1	X2	Y2	Z2	X3	Y3	Z3	X4	Y4	Z4	X5	Y5	Z5	X6	Y6	Z6	X7	Y7	Z7	X8	Y8	Z8	X9	Y9	Z9	X10	Y10	Z10	X11	Y11	Z11	X12	Y12	Z12	X13	Y13	Z13	X14	Y14	Z14	X15	Y15	Z15	X16	Y16	Z16	X17	Y17	Z17	X18	Y18	Z18	X19	Y19	Z19	X20	Y20	Z20	X21	Y21	Z21	X22	Y22	Z22	X23	Y23	Z23	X24	Y24	Z24	X25	Y25	Z25	X26	Y26	Z26	X27	Y27	Z27	X28	Y28	Z28	X29	Y29	Z29	X30	Y30	Z30	X31	Y31	Z31	X32	Y32	Z32	X33	Y33	Z33	

106	10.392500000000	771.170644338734	1016.584192905196	400.839165602389	954.917578014070	1439.065374326793	217.619882841724	1056.306159484275	1370.069554790600	379.123443378041	972.954381933754	1444.892612082673	551.681792338630	937.760938449749	1500.803269598162	370.690127273662	994.896534421013	949.333420110549	520.378250548631	992.984080099105	971.303918186144	245.217252217331	1083.967253345298	789.799467328573	489.447537137446	1054.556608999800	667.240718435767	563.928131722946	1145.757178421297	634.353873410187	483.042252782658	1174.766003560736	522.967062976197	505.055266571960	1014.949725241583	744.983554468490	279.091857245570	911.085289556732	639.310169920832	221.547048818103	982.154944730498	553.549780415053	288.000689639464	973.781715216616	487.438625652705	300.424428501926	948.886893221009	418.875635892114	293.139627694216	859.378454382045	304.005943942092	243.756929356428	908.106384340806	194.936395726749	320.458534165374	1105.395893433351	442.299207649860	510.671701320459	988.749237287810	388.442089018425	568.577504903954	987.307874569847	279.562929293298	517.924595735863	795.375007395354	191.773111002703	486.241595975034	969.759321235186	157.355122884928	526.866508584391	861.379105439411	141.737523331330	560.519917762445	1049.958566282990	56.862941706485	557.073159926448	777.559746618584	38.984544636280	365.075615305479	853.179813588270	35.280426616610	285.774841834566	936.323883069408	96.260260335553	312.973608631733	1065.453748509282	41.975673303233	288.474271290384	947.704252232051	1089.919759057703	86.590856875467	1157.472242438065	936.718003708982	84.475091155685	904.719188023885	1102.595174360964	669.339238780847	943.375179104304	843.573264390981	684.489564483878	
107	10.404714285714	770.265663632292	1016.394862560612	400.261328944672	956.148172530909	1439.014218397223	218.392130630847	1056.361299774230	1369.527864283469	380.355492895911	972.006782172600	1444.061168495999	552.538568128499	938.129018218303	1500.454753732172	371.573538791574	993.652882110922	949.195771058256	520.822235803949	995.818911022470	973.283846577129	244.754917679263	1083.867191790884	791.731487470634	489.292489789291	1056.535173172478	669.024480440439	564.161546536966	1147.475454812286	637.097920669109	482.683828449967	1178.796209017446	527.172195005498	505.012592152396	1012.641685209044	743.764835725873	280.157517306477	907.605586259471	639.124870626301	221.467024829909	977.058487279273	552.647511383386	288.459611897677	968.006546622945	486.822638972575	300.657736092043	942.928898976541	418.474967332619	293.324111982993	853.188127517591	303.899920285559	243.656492365511	901.045960193477	194.685999210049	320.655755691042	1112.755583241132	444.566841333343	511.094694097719	999.088136423688	385.311815098864	569.489893684693	1002.712799347585	276.351872554909	518.948860394881	815.140186393672	179.538604175936	487.852355795977	990.913298547712	153.393061750338	528.240975978661	883.506439613774	132.864743529273	562.301367726375	1075.757282463053	56.802270510728	558.768606362575	770.182375428865	38.952578447076	365.044289762766	845.767286540185	35.227329803422	285.762038756537	928.902571708590	96.209950757501	313.029183435196	1058.061263429188	41.937893326138	288.490686314428	950.383735911656	1090.370106352594	86.537106439777	1165.540527331126	945.344364920561	85.411267953461	895.202084322639	1104.106708548911	670.201992444143	921.954408439232	844.246859076959	690.123302246871	
108	10.416928571429	769.500270822711	1016.146868541489	399.791211443419	957.394137155263	1438.909477435096	219.313985844210	1056.463064312606	1368.944362487152	381.712868138173	971.121367331951	1443.207425075384	553.515262700148	938.512935219417	1500.042049314670	372.604562458620	992.513464968782	948.930737115227	521.363502772488	998.884240159775	975.255394266287	244.336371232155	1083.475443339527	793.144583926156	489.286728843783	1057.842900522090	670.320011273299	564.521662345156	1148.487842738327	639.149063019484	482.549053676906	1181.869733093224	530.866122668557	505.195754235851	1010.429336948886	742.536798948391	281.174651916734	904.282690523996	638.904999290614	221.429913067641	972.215059931871	551.756204768684	288.882475067166	962.529935405167	486.190205978352	300.847168863718	937.191043528051	418.026995011749	293.503014865098	847.135976950853	303.806349798763	243.577092347557	894.059871724700	194.409435803716	320.837473776716	1119.407650331252	446.473690962386	511.671034504149	1009.149936343941	381.698554551799	570.516841208524	1018.144728615329	272.952246421730	520.052618943226	835.704871000302	166.856992853107	489.379247155229	1012.451332837150	149.498195322705	529.664339698943	906.332376585181	123.839447415481	564.060488058823	1101.981904732035	57.283168884454	560.563651120178	762.814589373448	38.949115736258	364.994439930636	838.358574152137	35.181498987188	285.746606485127	921.492563653944	96.154448259024	313.079822314739	1050.669095112912	41.882102807172	288.504840069869	952.758181527760	1090.754990855166	86.717172723333	1173.026919826183	954.214441670814	86.643633164343	885.834213913762	1105.833521042124	671.122829474866	901.686438971840	845.862811156954	695.044409642126	
109	10.429142857143	768.870488208882	1015.838572721281	399.433035704714	958.645644154897	1438.747160264129	220.371086216810	1056.612359825848	1368.317871608825	383.179115155347	970.319886750352	1442.349888141479	554.596207562238	938.906336342295	1499.568852767469	373.761319888458	991.491217452335	948.549703245980	522.009067183009	1001.882046269040	976.976433904745	244.038371095456	1082.799025840838	794.010711636735	489.454795052627	1058.436867140358	671.075359704143	565.019740247672	1148.789688813912	640.457850563895	482.680148900837	1183.968458926696	533.985581305934	505.610672573593	1008.306664042158	741.308886593339	282.125342404241	901.151527387383	638.644375581586	221.457678304625	967.670278823488	550.873320835927	289.289335719966	957.387444689165	485.528048399357	301.030130827801	931.707542620983	417.521290012620	293.701630637016	841.250909145597	303.728103948165	243.535350517019	887.174091722156	194.103904951102	321.010451207878	1125.299179788877	448.002175241788	512.390175312904	1018.901441742393	377.658892796670	571.664419887356	1033.494632757501	269.467698598517	521.215953051349	856.977523940528	153.977401328378	490.823418440740	1034.221686353419	145.795689020166	531.091058306959	929.734415563302	114.840687744720	565.749847243824	1128.395459605563	58.397164719878	562.335153832590	755.454405681405	38.974929981126	364.932349368315	830.955972891171	35.146416899913	285.729864063347	914.097948546703	96.092959836565	313.127761364885	1043.278338394293	41.806739366811	288.514974200600	954.869437388055	1091.063387463502	87.117784337570	1179.911695721497	963.243470331593	88.166159360897	876.721282095151	1107.782384375683	672.125365269914	882.657992901754	848.211186216717	699.317598225506	
110	10.441357142857	768.379173933690	1015.456152729713	399.195256146395	959.888458463306	1438.522299139245	221.549444412742	1056.806774239909	1367.645635067664	384.737011146556	969.619517106262	1441.500390898967	555.767028704892	939.299399779644	1499.035258732359	375.024748325284	990.603663352851	948.062267186399	522.766801042529	1004.506152241796	978.204756644544	243.945663218219	1081.857174946584	794.303569593802	489.827350926751	1058.289393918321	671.246767270311	565.667025563686	1148.385406481269	640.985910235288	483.109145513473	1185.085051999853	536.474505271872	506.248547644044	1006.274366603825	740.087936826360	283.011404494787	898.242635654719	638.336755043430	221.571423147451	963.454996314577	549.992908879221	289.707158821706	952.597359156782	484.821155701561	301.245720999070	926.499414718915	416.947512074333	293.945648244525	835.552603842843	303.665567937824	243.547358675383	880.407581763260	193.766740525188	321.182919465793	1130.380697154107	449.133207838857	513.236871184315	1028.290054669295	373.251101842821	572.933182402926	1048.626853871083	265.984903134976	522.419614308036	878.799763659741	141.135950347593	492.195701040130	1056.037943069332	142.380966271618	532.484418905523	953.533914891303	106.024198703089	567.330842135929	1154.729183331243	60.176363656376	563.967762053254	748.100355277008	39.027903444209	364.866028102566	823.561530192715	35.124998600585	285.713808580773	906.722012553448	96.025055672739	313.176126425840	1035.890388736499	41.711436264357	288.520095495062	956.756484122785	1091.284943641304	87.726039346941	1186.184831414461	972.336502226932	89.970376483284	867.967809397783	1109.940872986220	673.225477119482	864.928204887725	851.092118320315	703.016009837162	
